<svg xmlns="http://www.w3.org/2000/svg" viewBox="0.875 0.938 33.187 8.562" fill="#fff"><path fill-rule="evenodd" d="M5.359 9.493c2.111 0 3.822-1.931 3.822-4.274S7.471.945 5.359.945H.875V9.5l4.484-.007zM5.359 2.876c.744 0 1.348 1.049 1.348 2.342s-.603 2.343-1.348 2.343H3.188V2.875l2.171.001z"/><path d="M9.562.938V9.5h6.126V7.562h-3.813v-1.5h3.813V4.125h-3.813v-1.25h3.813V.938z"/><path d="M16.375.938V9.5h5.25V7.562h-2.937V.938z"/><path d="M19.875.938v1.937h2.437V9.5h2.313V2.875h2.437V.938z"/><path fill-rule="evenodd" d="M24.938 9.5L28.062.938h2.75l3.25 8.562H31.75L31.219 8h-3.438l-.531 1.5zM29.438 3.469L30.625 6.5h-2.281z"/></svg>
